G75*
G70*
%OFA0B0*%
%FSLAX24Y24*%
%IPPOS*%
%LPD*%
%AMOC8*
5,1,8,0,0,1.08239X$1,22.5*
%
%ADD10C,0.0986*%
%ADD11R,0.1261X0.0474*%
%ADD12R,0.0297X0.0552*%
%ADD13R,0.0505X0.0493*%
%ADD14R,0.0356X0.0434*%
%ADD15R,0.0434X0.0356*%
%ADD16R,0.0316X0.0493*%
%ADD17R,0.0493X0.0671*%
%ADD18R,0.0552X0.0190*%
%ADD19R,0.0190X0.0552*%
%ADD20R,0.0556X0.0556*%
%ADD21C,0.0556*%
%ADD22C,0.0634*%
%ADD23C,0.1261*%
%ADD24C,0.0848*%
%ADD25C,0.0674*%
%ADD26R,0.0434X0.0395*%
%ADD27R,0.0946X0.0592*%
%ADD28R,0.1104X0.0395*%
%ADD29R,0.0277X0.0552*%
%ADD30R,0.0552X0.0277*%
%ADD31R,0.0237X0.0237*%
%ADD32R,0.0493X0.0505*%
%ADD33R,0.0946X0.0631*%
%ADD34R,0.0316X0.0356*%
%ADD35R,0.0356X0.0316*%
%ADD36C,0.0437*%
%ADD37C,0.0476*%
D10*
X003686Y004090D03*
X021286Y004090D03*
D11*
X007503Y006007D03*
X007503Y006794D03*
D12*
X005672Y006282D03*
X005298Y006282D03*
X004924Y006282D03*
X003664Y006007D03*
X002916Y006007D03*
X002916Y004983D03*
X003290Y004983D03*
X003664Y004983D03*
X004924Y007306D03*
X005298Y007306D03*
X005672Y007306D03*
D13*
X006322Y007139D03*
X006322Y006450D03*
D14*
X005830Y005495D03*
X005318Y005495D03*
X004727Y005495D03*
X004215Y005495D03*
X008861Y006086D03*
X009373Y006086D03*
X009373Y006715D03*
X008861Y006715D03*
X009019Y005377D03*
X009530Y005377D03*
X012129Y006046D03*
X012641Y006046D03*
X006971Y003054D03*
X006460Y003054D03*
X003680Y003267D03*
X003168Y003267D03*
D15*
X004511Y003192D03*
X005141Y003192D03*
X005141Y003704D03*
X004511Y003704D03*
X004747Y004294D03*
X004747Y004806D03*
X010062Y006617D03*
X010692Y006617D03*
X011558Y006499D03*
X011558Y005987D03*
X013251Y006066D03*
X013897Y005932D03*
X014550Y005948D03*
X014550Y005436D03*
X013897Y005420D03*
X013251Y006578D03*
X010692Y007129D03*
X010062Y007129D03*
X005062Y002680D03*
X004471Y002680D03*
X004471Y002168D03*
X005062Y002168D03*
X007739Y001991D03*
X007739Y002503D03*
X007739Y001361D03*
X007739Y000849D03*
D16*
X016015Y003790D03*
X016448Y003790D03*
X016881Y003790D03*
X017314Y003790D03*
X017747Y003790D03*
X018180Y003790D03*
X018613Y003790D03*
X019046Y003790D03*
D17*
X020416Y002794D03*
X015121Y002794D03*
X015121Y006101D03*
X020416Y006101D03*
D18*
X014235Y004649D03*
X014235Y004452D03*
X014235Y004255D03*
X014235Y004058D03*
X014235Y003861D03*
X014235Y003664D03*
X014235Y003467D03*
X014235Y003271D03*
X014235Y003074D03*
X014235Y002877D03*
X014235Y002680D03*
X014235Y002483D03*
X014235Y002286D03*
X014235Y002089D03*
X014235Y001893D03*
X014235Y001696D03*
X009747Y001696D03*
X009747Y001893D03*
X009747Y002089D03*
X009747Y002286D03*
X009747Y002483D03*
X009747Y002680D03*
X009747Y002877D03*
X009747Y003074D03*
X009747Y003271D03*
X009747Y003467D03*
X009747Y003664D03*
X009747Y003861D03*
X009747Y004058D03*
X009747Y004255D03*
X009747Y004452D03*
X009747Y004649D03*
D19*
X010515Y005416D03*
X010711Y005416D03*
X010908Y005416D03*
X011105Y005416D03*
X011302Y005416D03*
X011499Y005416D03*
X011696Y005416D03*
X011893Y005416D03*
X012089Y005416D03*
X012286Y005416D03*
X012483Y005416D03*
X012680Y005416D03*
X012877Y005416D03*
X013074Y005416D03*
X013271Y005416D03*
X013467Y005416D03*
X013467Y000928D03*
X013271Y000928D03*
X013074Y000928D03*
X012877Y000928D03*
X012680Y000928D03*
X012483Y000928D03*
X012286Y000928D03*
X012089Y000928D03*
X011893Y000928D03*
X011696Y000928D03*
X011499Y000928D03*
X011302Y000928D03*
X011105Y000928D03*
X010908Y000928D03*
X010711Y000928D03*
X010515Y000928D03*
D20*
X018487Y000928D03*
D21*
X017897Y000928D03*
X017306Y000928D03*
X016715Y000928D03*
X016125Y000928D03*
D22*
X013339Y007582D03*
X011666Y007582D03*
D23*
X001243Y006381D03*
X001243Y001774D03*
D24*
X001243Y003172D03*
X001243Y004983D03*
D25*
X002082Y005456D03*
X002082Y004471D03*
X002082Y003684D03*
X002082Y002700D03*
D26*
X002660Y006696D03*
X003487Y007070D03*
X002660Y007444D03*
X021046Y006794D03*
X021873Y006420D03*
X021086Y005830D03*
X021912Y005456D03*
X021086Y005082D03*
X021873Y007168D03*
D27*
X008605Y002503D03*
X008605Y000849D03*
D28*
X008271Y003349D03*
X008271Y003940D03*
X008271Y004550D03*
D29*
X007306Y004511D03*
X006991Y004511D03*
X006676Y004511D03*
X006361Y004511D03*
X006046Y004511D03*
X005731Y004511D03*
X005731Y003645D03*
X006046Y003645D03*
X006361Y003645D03*
X006676Y003645D03*
X006991Y003645D03*
X007306Y003645D03*
D30*
X007345Y004078D03*
X005692Y004078D03*
D31*
X002739Y003881D03*
X002739Y004432D03*
D32*
X001469Y007424D03*
X000780Y007424D03*
D33*
X004274Y007434D03*
X004274Y006469D03*
D34*
X003861Y002739D03*
X002719Y002739D03*
X002719Y002149D03*
X003861Y002149D03*
X003861Y001558D03*
X002719Y001558D03*
D35*
X003290Y001538D03*
D36*
X004589Y001479D03*
X006440Y001637D03*
X007739Y001676D03*
X006952Y002385D03*
X005692Y002857D03*
X006400Y003074D03*
X007030Y003015D03*
X009058Y003211D03*
X010337Y003172D03*
X010692Y003546D03*
X011479Y003369D03*
X010810Y002857D03*
X010298Y002542D03*
X011597Y002188D03*
X012700Y001873D03*
X012149Y001519D03*
X011519Y001519D03*
X009826Y000928D03*
X006991Y000810D03*
X006440Y000810D03*
X012739Y002621D03*
X013566Y002739D03*
X013645Y003271D03*
X015141Y002523D03*
X016873Y003231D03*
X014904Y004156D03*
X015023Y004708D03*
X015771Y005337D03*
X015141Y005790D03*
X016912Y005849D03*
X018645Y005337D03*
X020416Y005830D03*
X021400Y006322D03*
X020298Y006912D03*
X021834Y007463D03*
X018054Y006558D03*
X015889Y006558D03*
X013763Y006952D03*
X012503Y006755D03*
X012070Y006499D03*
X010889Y006086D03*
X010141Y006125D03*
X010337Y005652D03*
X008566Y005377D03*
X009196Y004629D03*
X009235Y004078D03*
X010298Y003960D03*
X011046Y004117D03*
X011361Y004668D03*
X010849Y004826D03*
X012030Y004727D03*
X012857Y004727D03*
X008054Y003861D03*
X006361Y004944D03*
X005869Y005495D03*
X003290Y005397D03*
X005534Y006794D03*
X006145Y007109D03*
X003566Y006834D03*
X002601Y006932D03*
X009629Y007227D03*
X010692Y007149D03*
X020613Y004806D03*
X020416Y002483D03*
X015731Y001676D03*
X014786Y001558D03*
X013920Y001204D03*
X015141Y000652D03*
X004944Y003192D03*
D37*
X003290Y001204D03*
X004865Y001007D03*
X005141Y001873D03*
X006361Y006046D03*
X004235Y007385D03*
X002109Y007542D03*
M02*
