G75*
G70*
%OFA0B0*%
%FSLAX24Y24*%
%IPPOS*%
%LPD*%
%AMOC8*
5,1,8,0,0,1.08239X$1,22.5*
%
%ADD10C,0.0050*%
%ADD11C,0.0067*%
%ADD12C,0.0020*%
%ADD13C,0.0080*%
%ADD14C,0.0120*%
%ADD15C,0.0040*%
%ADD16R,0.0315X0.0138*%
%ADD17C,0.0060*%
%ADD18R,0.0118X0.0236*%
%ADD19R,0.0236X0.0118*%
%ADD20C,0.0030*%
%ADD21C,0.0100*%
%ADD22R,0.0472X0.0079*%
%ADD23R,0.0079X0.0472*%
%ADD24R,0.0138X0.0315*%
D10*
X002582Y001400D02*
X003999Y001400D01*
X003999Y002897D01*
X002582Y002897D01*
X002582Y001400D01*
X002857Y001400D02*
X003133Y001400D01*
X003448Y001400D02*
X003723Y001400D01*
X003999Y001715D02*
X003999Y001991D01*
X004215Y001952D02*
X004215Y002326D01*
X003999Y002306D02*
X003999Y002582D01*
X004215Y002523D02*
X004215Y002897D01*
X004727Y002897D01*
X004727Y002523D01*
X004806Y002523D02*
X004806Y002897D01*
X005318Y002897D01*
X005318Y002523D01*
X005318Y002326D02*
X005318Y001952D01*
X004806Y001952D01*
X004806Y002326D01*
X004727Y002326D02*
X004727Y001952D01*
X004215Y001952D01*
X003606Y001794D02*
X003608Y001806D01*
X003613Y001817D01*
X003622Y001826D01*
X003633Y001831D01*
X003645Y001833D01*
X003657Y001831D01*
X003668Y001826D01*
X003677Y001817D01*
X003682Y001806D01*
X003684Y001794D01*
X003682Y001782D01*
X003677Y001771D01*
X003668Y001762D01*
X003657Y001757D01*
X003645Y001755D01*
X003633Y001757D01*
X003622Y001762D01*
X003613Y001771D01*
X003608Y001782D01*
X003606Y001794D01*
X002582Y001715D02*
X002582Y001991D01*
X002582Y002306D02*
X002582Y002582D01*
X002857Y002897D02*
X003723Y002897D01*
X003897Y003011D02*
X003523Y003011D01*
X003326Y003011D02*
X002952Y003011D01*
X002952Y003523D01*
X003326Y003523D01*
X003523Y003523D02*
X003897Y003523D01*
X003897Y003011D01*
X004255Y002975D02*
X004767Y002975D01*
X004767Y003349D01*
X004885Y003349D02*
X004885Y002975D01*
X005397Y002975D01*
X005397Y003349D01*
X005534Y003487D02*
X007503Y003487D01*
X007503Y004668D01*
X005534Y004668D01*
X005534Y003487D01*
X005397Y003546D02*
X005397Y003920D01*
X004885Y003920D01*
X004885Y003546D01*
X004767Y003546D02*
X004767Y003920D01*
X004255Y003920D01*
X004255Y003546D01*
X004255Y003349D02*
X004255Y002975D01*
X005849Y002621D02*
X006715Y002621D01*
X006715Y001873D01*
X005849Y001873D01*
X005849Y002621D01*
X006007Y002542D02*
X006086Y002424D01*
X006007Y002542D02*
X005928Y002424D01*
X006007Y002542D02*
X006007Y002267D01*
X006400Y002070D02*
X006637Y002070D01*
X006519Y001991D01*
X006637Y002070D02*
X006519Y002149D01*
X006401Y002385D02*
X006403Y002406D01*
X006409Y002426D01*
X006418Y002446D01*
X006430Y002463D01*
X006445Y002477D01*
X006463Y002489D01*
X006483Y002497D01*
X006503Y002502D01*
X006524Y002503D01*
X006545Y002500D01*
X006565Y002494D01*
X006584Y002483D01*
X006601Y002470D01*
X006614Y002454D01*
X006625Y002436D01*
X006633Y002416D01*
X006637Y002396D01*
X006637Y002374D01*
X006633Y002354D01*
X006625Y002334D01*
X006614Y002316D01*
X006601Y002300D01*
X006584Y002287D01*
X006565Y002276D01*
X006545Y002270D01*
X006524Y002267D01*
X006503Y002268D01*
X006483Y002273D01*
X006463Y002281D01*
X006445Y002293D01*
X006430Y002307D01*
X006418Y002324D01*
X006409Y002344D01*
X006403Y002364D01*
X006401Y002385D01*
X007483Y002345D02*
X007483Y002719D01*
X007995Y002719D01*
X007995Y002345D01*
X007995Y002149D02*
X007995Y001774D01*
X007483Y001774D01*
X007483Y002149D01*
X007483Y001578D02*
X007995Y001578D01*
X007995Y001204D01*
X007995Y001007D02*
X007995Y000633D01*
X007483Y000633D01*
X007483Y001007D01*
X007483Y001204D02*
X007483Y001578D01*
X007188Y002798D02*
X006814Y002798D01*
X006617Y002798D02*
X006243Y002798D01*
X006243Y003310D01*
X006617Y003310D01*
X006814Y003310D02*
X007188Y003310D01*
X007188Y002798D01*
X005003Y004078D02*
X004491Y004078D01*
X004491Y004452D01*
X004491Y004649D02*
X004491Y005023D01*
X005003Y005023D01*
X005003Y004649D01*
X005003Y004452D02*
X005003Y004078D01*
X004944Y005239D02*
X004570Y005239D01*
X004373Y005239D02*
X003999Y005239D01*
X003999Y005751D01*
X004373Y005751D01*
X004570Y005751D02*
X004944Y005751D01*
X004944Y005239D01*
X005101Y005239D02*
X005475Y005239D01*
X005672Y005239D02*
X006046Y005239D01*
X006046Y005751D01*
X005672Y005751D01*
X005475Y005751D02*
X005101Y005751D01*
X005101Y005239D01*
X006026Y006164D02*
X006617Y006164D01*
X006617Y006676D01*
X006026Y006676D02*
X006026Y006164D01*
X006026Y006912D02*
X006026Y007424D01*
X006617Y007424D01*
X006617Y006912D01*
X008645Y006971D02*
X008645Y006460D01*
X009019Y006460D01*
X009019Y006341D02*
X008645Y006341D01*
X008645Y005830D01*
X009019Y005830D01*
X009215Y005830D02*
X009589Y005830D01*
X009589Y006341D01*
X009215Y006341D01*
X009215Y006460D02*
X009589Y006460D01*
X009589Y006971D01*
X009215Y006971D01*
X009019Y006971D02*
X008645Y006971D01*
X009806Y006971D02*
X009806Y007345D01*
X010318Y007345D01*
X010318Y006971D01*
X010436Y006971D02*
X010436Y007345D01*
X010948Y007345D01*
X010948Y006971D01*
X010948Y006774D02*
X010948Y006400D01*
X010436Y006400D01*
X010436Y006774D01*
X010318Y006774D02*
X010318Y006400D01*
X009806Y006400D01*
X009806Y006774D01*
X011302Y006715D02*
X011302Y006341D01*
X011302Y006145D02*
X011302Y005771D01*
X011814Y005771D01*
X011814Y006145D01*
X011912Y006302D02*
X012286Y006302D01*
X012483Y006302D02*
X012857Y006302D01*
X012857Y005790D01*
X012483Y005790D01*
X012286Y005790D02*
X011912Y005790D01*
X011912Y006302D01*
X011814Y006341D02*
X011814Y006715D01*
X011302Y006715D01*
X012995Y006794D02*
X012995Y006420D01*
X012995Y006223D02*
X012995Y005849D01*
X013507Y005849D01*
X013507Y006223D01*
X013641Y006149D02*
X013641Y005774D01*
X013641Y005578D02*
X013641Y005204D01*
X014152Y005204D01*
X014152Y005578D01*
X014294Y005593D02*
X014294Y005219D01*
X014806Y005219D01*
X014806Y005593D01*
X014806Y005790D02*
X014806Y006164D01*
X014294Y006164D01*
X014294Y005790D01*
X014152Y005774D02*
X014152Y006149D01*
X013641Y006149D01*
X013507Y006420D02*
X013507Y006794D01*
X012995Y006794D01*
X009747Y005633D02*
X009747Y005121D01*
X009373Y005121D01*
X009176Y005121D02*
X008802Y005121D01*
X008802Y005633D01*
X009176Y005633D01*
X009373Y005633D02*
X009747Y005633D01*
X001755Y007129D02*
X001755Y007719D01*
X001243Y007719D01*
X001007Y007719D02*
X000495Y007719D01*
X000495Y007129D01*
X001007Y007129D01*
X001243Y007129D02*
X001755Y007129D01*
D11*
X006495Y002385D02*
X006497Y002394D01*
X006502Y002402D01*
X006510Y002407D01*
X006519Y002409D01*
X006528Y002407D01*
X006536Y002402D01*
X006541Y002394D01*
X006543Y002385D01*
X006541Y002376D01*
X006536Y002368D01*
X006528Y002363D01*
X006519Y002361D01*
X006510Y002363D01*
X006502Y002368D01*
X006497Y002376D01*
X006495Y002385D01*
D12*
X002710Y000961D02*
X002710Y000741D01*
X002820Y000741D01*
X002856Y000778D01*
X002856Y000815D01*
X002820Y000851D01*
X002710Y000851D01*
X002820Y000851D02*
X002856Y000888D01*
X002856Y000925D01*
X002820Y000961D01*
X002710Y000961D01*
X002931Y000961D02*
X003004Y000888D01*
X003077Y000961D01*
X003077Y000741D01*
X003152Y000741D02*
X003152Y000961D01*
X003262Y000961D01*
X003298Y000925D01*
X003298Y000851D01*
X003262Y000815D01*
X003152Y000815D01*
X003373Y000888D02*
X003446Y000961D01*
X003446Y000741D01*
X003373Y000741D02*
X003519Y000741D01*
X003594Y000778D02*
X003630Y000741D01*
X003704Y000741D01*
X003740Y000778D01*
X003740Y000815D01*
X003704Y000851D01*
X003630Y000851D01*
X003594Y000888D01*
X003594Y000925D01*
X003630Y000961D01*
X003704Y000961D01*
X003740Y000925D01*
X003740Y000888D01*
X003704Y000851D01*
X003630Y000851D02*
X003594Y000815D01*
X003594Y000778D01*
X003815Y000778D02*
X003851Y000741D01*
X003925Y000741D01*
X003961Y000778D01*
X003961Y000925D01*
X003815Y000778D01*
X003815Y000925D01*
X003851Y000961D01*
X003925Y000961D01*
X003961Y000925D01*
X002931Y000961D02*
X002931Y000741D01*
X002456Y001410D02*
X002273Y001410D01*
X002456Y001410D02*
X002493Y001447D01*
X002493Y001521D01*
X002456Y001557D01*
X002273Y001557D01*
X002309Y001631D02*
X002273Y001668D01*
X002273Y001742D01*
X002309Y001778D01*
X002346Y001778D01*
X002383Y001742D01*
X002419Y001778D01*
X002456Y001778D01*
X002493Y001742D01*
X002493Y001668D01*
X002456Y001631D01*
X002383Y001705D02*
X002383Y001742D01*
X004113Y001764D02*
X004223Y001764D01*
X004260Y001801D01*
X004260Y001874D01*
X004223Y001911D01*
X004113Y001911D01*
X004113Y001691D01*
X004187Y001764D02*
X004260Y001691D01*
X004334Y001691D02*
X004481Y001691D01*
X004408Y001691D02*
X004408Y001911D01*
X004334Y001838D01*
X004555Y001874D02*
X004555Y001727D01*
X004702Y001874D01*
X004702Y001727D01*
X004665Y001691D01*
X004592Y001691D01*
X004555Y001727D01*
X004555Y001874D02*
X004592Y001911D01*
X004665Y001911D01*
X004702Y001874D01*
X005418Y002063D02*
X005454Y002027D01*
X005601Y002027D01*
X005638Y002063D01*
X005638Y002137D01*
X005601Y002173D01*
X005638Y002248D02*
X005638Y002394D01*
X005638Y002321D02*
X005418Y002321D01*
X005491Y002248D01*
X005454Y002173D02*
X005418Y002137D01*
X005418Y002063D01*
X005899Y002145D02*
X005972Y002072D01*
X005972Y001962D01*
X005972Y002072D02*
X006045Y002145D01*
X006045Y002182D01*
X006174Y002182D02*
X006321Y001962D01*
X006174Y001962D02*
X006321Y002182D01*
X006321Y002277D02*
X006174Y002277D01*
X006174Y002313D01*
X006321Y002460D01*
X006321Y002497D01*
X006174Y002497D01*
X005638Y002505D02*
X005601Y002469D01*
X005454Y002615D01*
X005601Y002615D01*
X005638Y002579D01*
X005638Y002505D01*
X005601Y002469D02*
X005454Y002469D01*
X005418Y002505D01*
X005418Y002579D01*
X005454Y002615D01*
X005899Y002182D02*
X005899Y002145D01*
X006765Y002019D02*
X006765Y001872D01*
X006802Y001835D01*
X006875Y001835D01*
X006912Y001872D01*
X006986Y001835D02*
X007133Y001835D01*
X007060Y001835D02*
X007060Y002055D01*
X006986Y001982D01*
X006912Y002019D02*
X006875Y002055D01*
X006802Y002055D01*
X006765Y002019D01*
X007207Y001982D02*
X007281Y002055D01*
X007281Y001835D01*
X007354Y001835D02*
X007207Y001835D01*
X007244Y001347D02*
X007207Y001310D01*
X007244Y001347D02*
X007317Y001347D01*
X007354Y001310D01*
X007354Y001273D01*
X007207Y001126D01*
X007354Y001126D01*
X007133Y001126D02*
X006986Y001126D01*
X007060Y001126D02*
X007060Y001347D01*
X006986Y001273D01*
X006912Y001310D02*
X006875Y001347D01*
X006802Y001347D01*
X006765Y001310D01*
X006765Y001163D01*
X006802Y001126D01*
X006875Y001126D01*
X006912Y001163D01*
X009159Y000981D02*
X009306Y000761D01*
X009380Y000761D02*
X009527Y000908D01*
X009527Y000945D01*
X009490Y000981D01*
X009417Y000981D01*
X009380Y000945D01*
X009306Y000981D02*
X009159Y000761D01*
X009380Y000761D02*
X009527Y000761D01*
X013690Y000721D02*
X013727Y000684D01*
X013800Y000684D01*
X013837Y000721D01*
X013837Y000904D01*
X013911Y000868D02*
X013948Y000904D01*
X014021Y000904D01*
X014058Y000868D01*
X014058Y000831D01*
X013911Y000684D01*
X014058Y000684D01*
X013690Y000721D02*
X013690Y000904D01*
X007670Y002987D02*
X007670Y003134D01*
X007633Y003171D01*
X007560Y003171D01*
X007523Y003134D01*
X007523Y003097D01*
X007560Y003061D01*
X007670Y003061D01*
X007670Y002987D02*
X007633Y002951D01*
X007560Y002951D01*
X007523Y002987D01*
X007449Y002987D02*
X007412Y002951D01*
X007339Y002951D01*
X007302Y002987D01*
X007302Y003134D01*
X007339Y003171D01*
X007412Y003171D01*
X007449Y003134D01*
X006669Y003978D02*
X006719Y004028D01*
X006669Y004078D01*
X006619Y004028D02*
X006719Y004028D01*
X006545Y003988D02*
X006479Y004088D01*
X006479Y004138D02*
X006545Y004138D01*
X006545Y004088D02*
X006479Y003988D01*
X006362Y003988D02*
X006362Y004038D01*
X006395Y004071D01*
X006395Y004088D01*
X006369Y004128D02*
X006369Y004228D01*
X006419Y004178D01*
X006479Y004154D02*
X006479Y004138D01*
X006479Y004154D02*
X006545Y004221D01*
X006545Y004238D01*
X006479Y004238D01*
X006369Y004228D02*
X006319Y004178D01*
X006329Y004088D02*
X006329Y004071D01*
X006362Y004038D01*
X006609Y004178D02*
X006611Y004183D01*
X006615Y004187D01*
X006620Y004188D01*
X006626Y004186D01*
X006629Y004181D01*
X006629Y004175D01*
X006626Y004170D01*
X006620Y004168D01*
X006615Y004169D01*
X006611Y004173D01*
X006609Y004178D01*
X006569Y004178D02*
X006571Y004191D01*
X006576Y004204D01*
X006585Y004215D01*
X006596Y004222D01*
X006609Y004227D01*
X006622Y004228D01*
X006636Y004225D01*
X006648Y004219D01*
X006658Y004210D01*
X006665Y004198D01*
X006669Y004185D01*
X006669Y004171D01*
X006665Y004158D01*
X006658Y004146D01*
X006648Y004137D01*
X006636Y004131D01*
X006622Y004128D01*
X006609Y004129D01*
X006596Y004134D01*
X006585Y004141D01*
X006576Y004152D01*
X006571Y004165D01*
X006569Y004178D01*
X005323Y004145D02*
X005323Y004071D01*
X005286Y004034D01*
X005139Y004034D01*
X005103Y004071D01*
X005103Y004145D01*
X005139Y004181D01*
X005139Y004255D02*
X005176Y004255D01*
X005213Y004292D01*
X005213Y004366D01*
X005249Y004402D01*
X005286Y004402D01*
X005323Y004366D01*
X005323Y004292D01*
X005286Y004255D01*
X005249Y004255D01*
X005213Y004292D01*
X005213Y004366D02*
X005176Y004402D01*
X005139Y004402D01*
X005103Y004366D01*
X005103Y004292D01*
X005139Y004255D01*
X005286Y004181D02*
X005323Y004145D01*
X004421Y003748D02*
X004274Y003748D01*
X004200Y003711D02*
X004163Y003748D01*
X004090Y003748D01*
X004053Y003711D01*
X004053Y003565D01*
X004090Y003528D01*
X004163Y003528D01*
X004200Y003565D01*
X004274Y003565D02*
X004274Y003528D01*
X004274Y003565D02*
X004421Y003711D01*
X004421Y003748D01*
X002828Y003631D02*
X002791Y003668D01*
X002718Y003668D01*
X002681Y003631D01*
X002607Y003631D02*
X002570Y003668D01*
X002460Y003668D01*
X002460Y003448D01*
X002570Y003448D01*
X002607Y003484D01*
X002607Y003631D01*
X002681Y003448D02*
X002828Y003594D01*
X002828Y003631D01*
X002828Y003448D02*
X002681Y003448D01*
X002601Y003268D02*
X002601Y003048D01*
X002674Y003048D02*
X002527Y003048D01*
X002453Y003085D02*
X002416Y003048D01*
X002343Y003048D01*
X002306Y003085D01*
X002306Y003232D01*
X002343Y003268D01*
X002416Y003268D01*
X002453Y003232D01*
X002527Y003195D02*
X002601Y003268D01*
X002748Y003232D02*
X002785Y003268D01*
X002858Y003268D01*
X002895Y003232D01*
X002895Y003195D01*
X002858Y003158D01*
X002895Y003122D01*
X002895Y003085D01*
X002858Y003048D01*
X002785Y003048D01*
X002748Y003085D01*
X002822Y003158D02*
X002858Y003158D01*
X003974Y004748D02*
X003974Y004969D01*
X004084Y004969D01*
X004121Y004932D01*
X004121Y004859D01*
X004084Y004822D01*
X003974Y004822D01*
X004048Y004822D02*
X004121Y004748D01*
X004195Y004785D02*
X004232Y004748D01*
X004305Y004748D01*
X004342Y004785D01*
X004342Y004932D01*
X004305Y004969D01*
X004232Y004969D01*
X004195Y004932D01*
X004195Y004895D01*
X004232Y004859D01*
X004342Y004859D01*
X006133Y005387D02*
X006133Y005607D01*
X006243Y005607D01*
X006280Y005570D01*
X006280Y005497D01*
X006243Y005460D01*
X006133Y005460D01*
X006206Y005460D02*
X006280Y005387D01*
X006354Y005424D02*
X006354Y005460D01*
X006391Y005497D01*
X006464Y005497D01*
X006501Y005460D01*
X006501Y005424D01*
X006464Y005387D01*
X006391Y005387D01*
X006354Y005424D01*
X006391Y005497D02*
X006354Y005534D01*
X006354Y005570D01*
X006391Y005607D01*
X006464Y005607D01*
X006501Y005570D01*
X006501Y005534D01*
X006464Y005497D01*
X006634Y005079D02*
X006634Y004896D01*
X006671Y004859D01*
X006744Y004859D01*
X006781Y004896D01*
X006781Y005079D01*
X006855Y005006D02*
X006928Y005079D01*
X006928Y004859D01*
X006855Y004859D02*
X007002Y004859D01*
X007781Y004954D02*
X007928Y005174D01*
X008002Y005101D02*
X008075Y005174D01*
X008075Y004954D01*
X008002Y004954D02*
X008149Y004954D01*
X007928Y004954D02*
X007781Y005174D01*
X008331Y005846D02*
X008331Y005956D01*
X008368Y005992D01*
X008441Y005992D01*
X008478Y005956D01*
X008478Y005846D01*
X008478Y005919D02*
X008551Y005992D01*
X008441Y006066D02*
X008441Y006213D01*
X008331Y006177D02*
X008441Y006066D01*
X008551Y006177D02*
X008331Y006177D01*
X008331Y005846D02*
X008551Y005846D01*
X009822Y005339D02*
X009822Y005192D01*
X009859Y005155D01*
X009932Y005155D01*
X009969Y005192D01*
X010043Y005192D02*
X010080Y005155D01*
X010153Y005155D01*
X010190Y005192D01*
X010190Y005229D01*
X010153Y005265D01*
X010043Y005265D01*
X010043Y005192D01*
X010043Y005265D02*
X010116Y005339D01*
X010190Y005376D01*
X009969Y005339D02*
X009932Y005376D01*
X009859Y005376D01*
X009822Y005339D01*
X008551Y006515D02*
X008331Y006515D01*
X008331Y006625D01*
X008368Y006662D01*
X008441Y006662D01*
X008478Y006625D01*
X008478Y006515D01*
X008478Y006588D02*
X008551Y006662D01*
X008514Y006736D02*
X008551Y006772D01*
X008551Y006846D01*
X008514Y006883D01*
X008478Y006883D01*
X008441Y006846D01*
X008441Y006809D01*
X008441Y006846D02*
X008404Y006883D01*
X008368Y006883D01*
X008331Y006846D01*
X008331Y006772D01*
X008368Y006736D01*
X007731Y007186D02*
X007584Y007186D01*
X007658Y007186D02*
X007658Y007406D01*
X007584Y007333D01*
X007510Y007186D02*
X007363Y007186D01*
X007363Y007406D01*
X007052Y007198D02*
X006905Y007198D01*
X006978Y007198D02*
X006978Y007418D01*
X006905Y007345D01*
X006831Y007381D02*
X006794Y007418D01*
X006721Y007418D01*
X006684Y007381D01*
X006684Y007235D01*
X006721Y007198D01*
X006794Y007198D01*
X006831Y007235D01*
X005368Y007665D02*
X005221Y007665D01*
X005368Y007811D01*
X005368Y007848D01*
X005331Y007885D01*
X005258Y007885D01*
X005221Y007848D01*
X005147Y007848D02*
X005110Y007885D01*
X005037Y007885D01*
X005000Y007848D01*
X005000Y007701D01*
X005037Y007665D01*
X005110Y007665D01*
X005147Y007701D01*
X002432Y007164D02*
X002286Y007164D01*
X002396Y007274D01*
X002396Y007054D01*
X002211Y007054D02*
X002065Y007054D01*
X002138Y007054D02*
X002138Y007274D01*
X002065Y007201D01*
X001990Y007238D02*
X001954Y007274D01*
X001880Y007274D01*
X001844Y007238D01*
X001844Y007091D01*
X001880Y007054D01*
X001954Y007054D01*
X001990Y007091D01*
X002043Y006726D02*
X002117Y006726D01*
X002154Y006690D01*
X002154Y006543D01*
X002117Y006506D01*
X002043Y006506D01*
X002007Y006543D01*
X002007Y006690D01*
X002043Y006726D01*
X002080Y006580D02*
X002154Y006506D01*
X002228Y006506D02*
X002375Y006506D01*
X002301Y006506D02*
X002301Y006726D01*
X002228Y006653D01*
X003182Y006220D02*
X003219Y006257D01*
X003256Y006257D01*
X003403Y006110D01*
X003403Y006257D01*
X003182Y006220D02*
X003182Y006147D01*
X003219Y006110D01*
X003219Y006036D02*
X003182Y005999D01*
X003182Y005926D01*
X003219Y005889D01*
X003366Y005889D01*
X003403Y005926D01*
X003403Y005999D01*
X003366Y006036D01*
X003293Y006036D01*
X003293Y005963D01*
X003293Y005815D02*
X003329Y005778D01*
X003329Y005668D01*
X003329Y005742D02*
X003403Y005815D01*
X003293Y005815D02*
X003219Y005815D01*
X003182Y005778D01*
X003182Y005668D01*
X003403Y005668D01*
X004322Y005820D02*
X004322Y006040D01*
X004432Y006040D01*
X004469Y006003D01*
X004469Y005930D01*
X004432Y005893D01*
X004322Y005893D01*
X004395Y005893D02*
X004469Y005820D01*
X004543Y005820D02*
X004543Y005857D01*
X004690Y006003D01*
X004690Y006040D01*
X004543Y006040D01*
X009901Y007439D02*
X009901Y007659D01*
X010011Y007659D01*
X010047Y007622D01*
X010047Y007549D01*
X010011Y007512D01*
X009901Y007512D01*
X009974Y007512D02*
X010047Y007439D01*
X010122Y007439D02*
X010268Y007439D01*
X010195Y007439D02*
X010195Y007659D01*
X010122Y007586D01*
X010491Y007659D02*
X010491Y007439D01*
X010491Y007512D02*
X010601Y007512D01*
X010638Y007549D01*
X010638Y007622D01*
X010601Y007659D01*
X010491Y007659D01*
X010565Y007512D02*
X010638Y007439D01*
X010712Y007439D02*
X010859Y007586D01*
X010859Y007622D01*
X010822Y007659D01*
X010749Y007659D01*
X010712Y007622D01*
X010712Y007439D02*
X010859Y007439D01*
X011318Y006992D02*
X011355Y007029D01*
X011428Y007029D01*
X011465Y006992D01*
X011539Y006919D02*
X011686Y006919D01*
X011649Y007029D02*
X011539Y006919D01*
X011465Y006846D02*
X011428Y006809D01*
X011355Y006809D01*
X011318Y006846D01*
X011318Y006992D01*
X011649Y007029D02*
X011649Y006809D01*
X012242Y007032D02*
X012242Y007252D01*
X012352Y007252D01*
X012389Y007215D01*
X012389Y007142D01*
X012352Y007105D01*
X012242Y007105D01*
X012316Y007105D02*
X012389Y007032D01*
X012463Y007069D02*
X012500Y007032D01*
X012573Y007032D01*
X012610Y007069D01*
X012610Y007142D01*
X012573Y007179D01*
X012537Y007179D01*
X012463Y007142D01*
X012463Y007252D01*
X012610Y007252D01*
X013050Y007071D02*
X013087Y007108D01*
X013160Y007108D01*
X013197Y007071D01*
X013271Y007071D02*
X013308Y007108D01*
X013381Y007108D01*
X013418Y007071D01*
X013418Y007034D01*
X013381Y006998D01*
X013418Y006961D01*
X013418Y006924D01*
X013381Y006888D01*
X013308Y006888D01*
X013271Y006924D01*
X013197Y006924D02*
X013160Y006888D01*
X013087Y006888D01*
X013050Y006924D01*
X013050Y007071D01*
X013345Y006998D02*
X013381Y006998D01*
X013723Y006457D02*
X013834Y006457D01*
X013870Y006421D01*
X013870Y006347D01*
X013834Y006311D01*
X013723Y006311D01*
X013723Y006237D02*
X013723Y006457D01*
X013944Y006347D02*
X014055Y006347D01*
X014091Y006311D01*
X014091Y006274D01*
X014055Y006237D01*
X013981Y006237D01*
X013944Y006274D01*
X013944Y006347D01*
X014018Y006421D01*
X014091Y006457D01*
X014349Y006441D02*
X014349Y006294D01*
X014386Y006258D01*
X014460Y006258D01*
X014496Y006294D01*
X014570Y006294D02*
X014607Y006258D01*
X014681Y006258D01*
X014717Y006294D01*
X014717Y006368D01*
X014681Y006405D01*
X014644Y006405D01*
X014570Y006368D01*
X014570Y006478D01*
X014717Y006478D01*
X014496Y006441D02*
X014460Y006478D01*
X014386Y006478D01*
X014349Y006441D01*
X013870Y006237D02*
X013797Y006311D01*
X020708Y006296D02*
X020708Y006149D01*
X020744Y006112D01*
X020818Y006112D01*
X020854Y006149D01*
X020854Y006296D01*
X020818Y006333D01*
X020744Y006333D01*
X020708Y006296D01*
X020781Y006186D02*
X020854Y006112D01*
X020929Y006149D02*
X020965Y006112D01*
X021039Y006112D01*
X021075Y006149D01*
X021075Y006186D01*
X021039Y006223D01*
X021002Y006223D01*
X021039Y006223D02*
X021075Y006259D01*
X021075Y006296D01*
X021039Y006333D01*
X020965Y006333D01*
X020929Y006296D01*
X020908Y007256D02*
X021055Y007403D01*
X021055Y007439D01*
X021018Y007476D01*
X020945Y007476D01*
X020908Y007439D01*
X020834Y007439D02*
X020834Y007293D01*
X020797Y007256D01*
X020724Y007256D01*
X020687Y007293D01*
X020687Y007439D01*
X020724Y007476D01*
X020797Y007476D01*
X020834Y007439D01*
X020761Y007329D02*
X020834Y007256D01*
X020908Y007256D02*
X021055Y007256D01*
D13*
X021204Y007345D02*
X021519Y007345D01*
X021204Y007345D02*
X021204Y007109D01*
X021204Y006479D02*
X021204Y006243D01*
X021519Y006243D01*
X021440Y006007D02*
X021755Y006007D01*
X021755Y005771D01*
X021755Y005141D02*
X021755Y004904D01*
X021440Y004904D01*
X013881Y004904D02*
X013881Y001440D01*
X013723Y001282D01*
X010259Y001282D01*
X010101Y001440D01*
X010101Y004904D01*
X010259Y005062D01*
X013723Y005062D01*
X013881Y004904D01*
X008664Y004826D02*
X008664Y003054D01*
X007877Y003054D01*
X007877Y004826D01*
X008664Y004826D01*
X007503Y004668D02*
X007503Y004353D01*
X006873Y004078D02*
X006875Y004090D01*
X006880Y004101D01*
X006889Y004110D01*
X006900Y004115D01*
X006912Y004117D01*
X006924Y004115D01*
X006935Y004110D01*
X006944Y004101D01*
X006949Y004090D01*
X006951Y004078D01*
X006949Y004066D01*
X006944Y004055D01*
X006935Y004046D01*
X006924Y004041D01*
X006912Y004039D01*
X006900Y004041D01*
X006889Y004046D01*
X006880Y004055D01*
X006875Y004066D01*
X006873Y004078D01*
X007503Y003802D02*
X007503Y003487D01*
X005534Y003487D02*
X005534Y003802D01*
X005534Y004353D02*
X005534Y004668D01*
X003850Y005176D02*
X003813Y005176D01*
X003850Y005176D02*
X003850Y005814D01*
X003813Y005814D01*
X003871Y005967D02*
X004119Y005967D01*
X003989Y005845D02*
X003989Y006093D01*
X003769Y006307D02*
X003769Y007596D01*
X004780Y007596D01*
X004780Y006307D01*
X003769Y006307D01*
X003330Y006519D02*
X003015Y006519D01*
X003330Y006519D02*
X003330Y006755D01*
X004738Y006475D02*
X004775Y006475D01*
X004738Y006475D02*
X004738Y007113D01*
X004775Y007113D01*
X005821Y007113D02*
X005858Y007113D01*
X005858Y006475D01*
X005821Y006475D01*
X006814Y007089D02*
X008192Y007089D01*
X008192Y005711D01*
X006814Y005711D01*
X006814Y007089D01*
X003330Y007385D02*
X003330Y007621D01*
X003015Y007621D01*
X002768Y005814D02*
X002730Y005814D01*
X002730Y005176D01*
X002768Y005176D01*
X002916Y004432D02*
X002916Y004038D01*
X002562Y004038D01*
X002562Y004432D01*
X002562Y004038D02*
X002562Y003881D01*
X002916Y003881D02*
X002916Y004038D01*
X008251Y002641D02*
X008960Y002641D01*
X008960Y000711D01*
X008251Y000711D01*
X008251Y002641D01*
X015731Y001322D02*
X015731Y000534D01*
X018881Y000534D01*
X018881Y001322D01*
X015731Y001322D01*
X018251Y000534D02*
X018723Y000534D01*
D14*
X020416Y002282D02*
X015121Y002282D01*
X015121Y002440D01*
X015121Y003149D02*
X015121Y005747D01*
X015121Y006456D02*
X015121Y007519D01*
X020416Y007519D01*
X020416Y006456D01*
X020416Y005747D02*
X020416Y003149D01*
X020416Y002440D02*
X020416Y002282D01*
X005664Y006944D02*
X005666Y006951D01*
X005671Y006956D01*
X005678Y006958D01*
X005685Y006956D01*
X005690Y006951D01*
X005692Y006944D01*
X005690Y006937D01*
X005685Y006932D01*
X005678Y006930D01*
X005671Y006932D01*
X005666Y006937D01*
X005664Y006944D01*
X002896Y005345D02*
X002898Y005352D01*
X002903Y005357D01*
X002910Y005359D01*
X002917Y005357D01*
X002922Y005352D01*
X002924Y005345D01*
X002922Y005338D01*
X002917Y005333D01*
X002910Y005331D01*
X002903Y005333D01*
X002898Y005338D01*
X002896Y005345D01*
D15*
X006184Y006509D02*
X006184Y007080D01*
X006460Y007080D02*
X006460Y006509D01*
X001410Y007286D02*
X000839Y007286D01*
X000839Y007562D02*
X001410Y007562D01*
D16*
X006322Y007040D03*
X006322Y006548D03*
D17*
X004674Y006252D02*
X003874Y006252D01*
X003314Y006510D02*
X003314Y007630D01*
X002794Y007630D01*
X002794Y006510D01*
X003314Y006510D01*
X004375Y005583D02*
X004568Y005583D01*
X004568Y005407D02*
X004375Y005407D01*
X005477Y005407D02*
X005670Y005407D01*
X005670Y005583D02*
X005477Y005583D01*
X004835Y004647D02*
X004835Y004454D01*
X004659Y004454D02*
X004659Y004647D01*
X004599Y003544D02*
X004599Y003351D01*
X004423Y003351D02*
X004423Y003544D01*
X005052Y003544D02*
X005052Y003351D01*
X005229Y003351D02*
X005229Y003544D01*
X006619Y003142D02*
X006812Y003142D01*
X006812Y002966D02*
X006619Y002966D01*
X005150Y002521D02*
X005150Y002328D01*
X004974Y002328D02*
X004974Y002521D01*
X004560Y002521D02*
X004560Y002328D01*
X004383Y002328D02*
X004383Y002521D01*
X003521Y003178D02*
X003328Y003178D01*
X003328Y003355D02*
X003521Y003355D01*
X007651Y002343D02*
X007651Y002150D01*
X007827Y002150D02*
X007827Y002343D01*
X007827Y001202D02*
X007827Y001009D01*
X007651Y001009D02*
X007651Y001202D01*
X009178Y005289D02*
X009371Y005289D01*
X009371Y005465D02*
X009178Y005465D01*
X009213Y005997D02*
X009021Y005997D01*
X009021Y006174D02*
X009213Y006174D01*
X009213Y006627D02*
X009021Y006627D01*
X009021Y006804D02*
X009213Y006804D01*
X009974Y006776D02*
X009974Y006969D01*
X010150Y006969D02*
X010150Y006776D01*
X010604Y006776D02*
X010604Y006969D01*
X010780Y006969D02*
X010780Y006776D01*
X011470Y006339D02*
X011470Y006147D01*
X011646Y006147D02*
X011646Y006339D01*
X012288Y006134D02*
X012481Y006134D01*
X012481Y005958D02*
X012288Y005958D01*
X013163Y006225D02*
X013163Y006418D01*
X013339Y006418D02*
X013339Y006225D01*
X013808Y005773D02*
X013808Y005580D01*
X013985Y005580D02*
X013985Y005773D01*
X014462Y005788D02*
X014462Y005595D01*
X014638Y005595D02*
X014638Y005788D01*
X021219Y006016D02*
X021219Y004896D01*
X021739Y004896D01*
X021739Y006016D01*
X021219Y006016D01*
X021219Y006234D02*
X021219Y007354D01*
X021739Y007354D01*
X021739Y006234D01*
X021219Y006234D01*
X004674Y007652D02*
X003874Y007652D01*
D18*
X008956Y006717D03*
X009276Y006717D03*
X009276Y006087D03*
X008956Y006087D03*
X009115Y005375D03*
X009435Y005375D03*
X012224Y006048D03*
X012544Y006048D03*
X005735Y005493D03*
X005415Y005493D03*
X004632Y005493D03*
X004312Y005493D03*
X003585Y003265D03*
X003265Y003265D03*
X006554Y003056D03*
X006874Y003056D03*
D19*
X007737Y002406D03*
X007737Y002086D03*
X007741Y001266D03*
X007741Y000946D03*
X005064Y002265D03*
X004469Y002263D03*
X004469Y002583D03*
X005064Y002585D03*
X005143Y003289D03*
X004513Y003289D03*
X004513Y003609D03*
X005143Y003609D03*
X004749Y004391D03*
X004749Y004711D03*
X010064Y006714D03*
X010694Y006714D03*
X010694Y007034D03*
X010064Y007034D03*
X011556Y006402D03*
X011556Y006082D03*
X013249Y006161D03*
X013249Y006481D03*
X013895Y005835D03*
X014552Y005853D03*
X014552Y005533D03*
X013895Y005515D03*
D20*
X017232Y002851D02*
X017426Y002851D01*
X017527Y002755D02*
X017527Y002561D01*
X017527Y002658D02*
X017624Y002755D01*
X017672Y002755D01*
X017773Y002706D02*
X017773Y002610D01*
X017821Y002561D01*
X017918Y002561D01*
X017966Y002610D01*
X017966Y002706D01*
X017918Y002755D01*
X017821Y002755D01*
X017773Y002706D01*
X018067Y002755D02*
X018067Y002561D01*
X018261Y002561D02*
X018261Y002706D01*
X018212Y002755D01*
X018067Y002755D01*
X018362Y002755D02*
X018459Y002755D01*
X018410Y002803D02*
X018410Y002610D01*
X018459Y002561D01*
X017329Y002706D02*
X017232Y002706D01*
X017232Y002561D02*
X017232Y002851D01*
X019390Y001565D02*
X019575Y001565D01*
X019637Y001504D01*
X019637Y001380D01*
X019575Y001318D01*
X019390Y001318D01*
X019390Y001195D02*
X019390Y001565D01*
X019269Y001442D02*
X019269Y001195D01*
X019083Y001195D01*
X019022Y001257D01*
X019022Y001442D01*
X019758Y001565D02*
X019882Y001565D01*
X019820Y001565D02*
X019820Y001195D01*
X019758Y001195D02*
X019882Y001195D01*
X020004Y001195D02*
X020004Y001565D01*
X020251Y001195D01*
X020251Y001565D01*
X020372Y001565D02*
X020557Y001565D01*
X020619Y001504D01*
X020619Y001380D01*
X020557Y001318D01*
X020372Y001318D01*
X020372Y001195D02*
X020372Y001565D01*
X020741Y001380D02*
X020741Y001257D01*
X020802Y001195D01*
X020926Y001195D01*
X020987Y001257D01*
X020987Y001380D01*
X020926Y001442D01*
X020802Y001442D01*
X020741Y001380D01*
X021109Y001442D02*
X021171Y001442D01*
X021171Y001195D01*
X021232Y001195D02*
X021109Y001195D01*
X021354Y001195D02*
X021354Y001442D01*
X021540Y001442D01*
X021601Y001380D01*
X021601Y001195D01*
X021784Y001257D02*
X021846Y001195D01*
X021784Y001257D02*
X021784Y001504D01*
X021723Y001442D02*
X021846Y001442D01*
X021171Y001565D02*
X021171Y001627D01*
X021075Y000983D02*
X020952Y000983D01*
X020890Y000921D01*
X020890Y000674D01*
X020952Y000612D01*
X021075Y000612D01*
X021137Y000674D01*
X020769Y000674D02*
X020707Y000612D01*
X020583Y000612D01*
X020522Y000674D01*
X020522Y000921D01*
X020583Y000983D01*
X020707Y000983D01*
X020769Y000921D01*
X021075Y000983D02*
X021137Y000921D01*
X020005Y000983D02*
X020005Y000736D01*
X019882Y000612D01*
X019758Y000736D01*
X019758Y000983D01*
X019637Y000983D02*
X019390Y000983D01*
X019390Y000612D01*
X019637Y000612D01*
X019514Y000797D02*
X019390Y000797D01*
X019269Y000797D02*
X019207Y000736D01*
X019022Y000736D01*
X019145Y000736D02*
X019269Y000612D01*
X019022Y000612D02*
X019022Y000983D01*
X019207Y000983D01*
X019269Y000921D01*
X019269Y000797D01*
D21*
X013455Y001597D02*
X013457Y001617D01*
X013462Y001637D01*
X013472Y001655D01*
X013484Y001672D01*
X013499Y001686D01*
X013517Y001696D01*
X013536Y001704D01*
X013556Y001708D01*
X013576Y001708D01*
X013596Y001704D01*
X013615Y001696D01*
X013633Y001686D01*
X013648Y001672D01*
X013660Y001655D01*
X013670Y001637D01*
X013675Y001617D01*
X013677Y001597D01*
X013675Y001577D01*
X013670Y001557D01*
X013660Y001539D01*
X013648Y001522D01*
X013633Y001508D01*
X013615Y001498D01*
X013596Y001490D01*
X013576Y001486D01*
X013556Y001486D01*
X013536Y001490D01*
X013517Y001498D01*
X013499Y001508D01*
X013484Y001522D01*
X013472Y001539D01*
X013462Y001557D01*
X013457Y001577D01*
X013455Y001597D01*
D22*
X014117Y001696D03*
X014117Y001893D03*
X014117Y002089D03*
X014117Y002286D03*
X014117Y002483D03*
X014117Y002680D03*
X014117Y002877D03*
X014117Y003074D03*
X014117Y003271D03*
X014117Y003467D03*
X014117Y003664D03*
X014117Y003861D03*
X014117Y004058D03*
X014117Y004255D03*
X014117Y004452D03*
X014117Y004649D03*
X009865Y004649D03*
X009865Y004452D03*
X009865Y004255D03*
X009865Y004058D03*
X009865Y003861D03*
X009865Y003664D03*
X009865Y003467D03*
X009865Y003271D03*
X009865Y003074D03*
X009865Y002877D03*
X009865Y002680D03*
X009865Y002483D03*
X009865Y002286D03*
X009865Y002089D03*
X009865Y001893D03*
X009865Y001696D03*
D23*
X010515Y001046D03*
X010711Y001046D03*
X010908Y001046D03*
X011105Y001046D03*
X011302Y001046D03*
X011499Y001046D03*
X011696Y001046D03*
X011893Y001046D03*
X012089Y001046D03*
X012286Y001046D03*
X012483Y001046D03*
X012680Y001046D03*
X012877Y001046D03*
X013074Y001046D03*
X013271Y001046D03*
X013467Y001046D03*
X013467Y005298D03*
X013271Y005298D03*
X013074Y005298D03*
X012877Y005298D03*
X012680Y005298D03*
X012483Y005298D03*
X012286Y005298D03*
X012089Y005298D03*
X011893Y005298D03*
X011696Y005298D03*
X011499Y005298D03*
X011302Y005298D03*
X011105Y005298D03*
X010908Y005298D03*
X010711Y005298D03*
X010515Y005298D03*
D24*
X001371Y007424D03*
X000879Y007424D03*
M02*
