G75*
G70*
%OFA0B0*%
%FSLAX24Y24*%
%IPPOS*%
%LPD*%
%AMOC8*
5,1,8,0,0,1.08239X$1,22.5*
%
%ADD10R,0.1181X0.0394*%
%ADD11R,0.0217X0.0472*%
%ADD12R,0.0425X0.0413*%
%ADD13R,0.0276X0.0354*%
%ADD14R,0.0354X0.0276*%
%ADD15R,0.0236X0.0413*%
%ADD16R,0.0413X0.0591*%
%ADD17R,0.0472X0.0110*%
%ADD18R,0.0110X0.0472*%
%ADD19R,0.0354X0.0315*%
%ADD20R,0.0866X0.0512*%
%ADD21R,0.1024X0.0315*%
%ADD22R,0.0197X0.0472*%
%ADD23R,0.0472X0.0197*%
%ADD24R,0.0157X0.0157*%
%ADD25R,0.0413X0.0425*%
%ADD26R,0.0866X0.0551*%
%ADD27R,0.0236X0.0276*%
%ADD28R,0.0276X0.0236*%
D10*
X007503Y006007D03*
X007503Y006794D03*
D11*
X005672Y006282D03*
X005298Y006282D03*
X004924Y006282D03*
X003664Y006007D03*
X002916Y006007D03*
X002916Y004983D03*
X003290Y004983D03*
X003664Y004983D03*
X004924Y007306D03*
X005298Y007306D03*
X005672Y007306D03*
D12*
X006322Y007139D03*
X006322Y006450D03*
D13*
X005830Y005495D03*
X005318Y005495D03*
X004727Y005495D03*
X004215Y005495D03*
X008861Y006086D03*
X009373Y006086D03*
X009373Y006715D03*
X008861Y006715D03*
X009019Y005377D03*
X009530Y005377D03*
X012129Y006046D03*
X012641Y006046D03*
X006971Y003054D03*
X006460Y003054D03*
X003680Y003267D03*
X003168Y003267D03*
D14*
X004511Y003192D03*
X005141Y003192D03*
X005141Y003704D03*
X004511Y003704D03*
X004747Y004294D03*
X004747Y004806D03*
X010062Y006617D03*
X010692Y006617D03*
X011558Y006499D03*
X011558Y005987D03*
X013251Y006066D03*
X013897Y005932D03*
X014550Y005948D03*
X014550Y005436D03*
X013897Y005420D03*
X013251Y006578D03*
X010692Y007129D03*
X010062Y007129D03*
X005062Y002680D03*
X004471Y002680D03*
X004471Y002168D03*
X005062Y002168D03*
X007739Y001991D03*
X007739Y002503D03*
X007739Y001361D03*
X007739Y000849D03*
D15*
X016015Y003790D03*
X016448Y003790D03*
X016881Y003790D03*
X017314Y003790D03*
X017747Y003790D03*
X018180Y003790D03*
X018613Y003790D03*
X019046Y003790D03*
D16*
X020416Y002794D03*
X015121Y002794D03*
X015121Y006101D03*
X020416Y006101D03*
D17*
X014235Y004649D03*
X014235Y004452D03*
X014235Y004255D03*
X014235Y004058D03*
X014235Y003861D03*
X014235Y003664D03*
X014235Y003467D03*
X014235Y003271D03*
X014235Y003074D03*
X014235Y002877D03*
X014235Y002680D03*
X014235Y002483D03*
X014235Y002286D03*
X014235Y002089D03*
X014235Y001893D03*
X014235Y001696D03*
X009747Y001696D03*
X009747Y001893D03*
X009747Y002089D03*
X009747Y002286D03*
X009747Y002483D03*
X009747Y002680D03*
X009747Y002877D03*
X009747Y003074D03*
X009747Y003271D03*
X009747Y003467D03*
X009747Y003664D03*
X009747Y003861D03*
X009747Y004058D03*
X009747Y004255D03*
X009747Y004452D03*
X009747Y004649D03*
D18*
X010515Y005416D03*
X010711Y005416D03*
X010908Y005416D03*
X011105Y005416D03*
X011302Y005416D03*
X011499Y005416D03*
X011696Y005416D03*
X011893Y005416D03*
X012089Y005416D03*
X012286Y005416D03*
X012483Y005416D03*
X012680Y005416D03*
X012877Y005416D03*
X013074Y005416D03*
X013271Y005416D03*
X013467Y005416D03*
X013467Y000928D03*
X013271Y000928D03*
X013074Y000928D03*
X012877Y000928D03*
X012680Y000928D03*
X012483Y000928D03*
X012286Y000928D03*
X012089Y000928D03*
X011893Y000928D03*
X011696Y000928D03*
X011499Y000928D03*
X011302Y000928D03*
X011105Y000928D03*
X010908Y000928D03*
X010711Y000928D03*
X010515Y000928D03*
D19*
X021086Y005082D03*
X021912Y005456D03*
X021086Y005830D03*
X021873Y006420D03*
X021046Y006794D03*
X021873Y007168D03*
X003487Y007070D03*
X002660Y006696D03*
X002660Y007444D03*
D20*
X008605Y002503D03*
X008605Y000849D03*
D21*
X008271Y003349D03*
X008271Y003940D03*
X008271Y004550D03*
D22*
X007306Y004511D03*
X006991Y004511D03*
X006676Y004511D03*
X006361Y004511D03*
X006046Y004511D03*
X005731Y004511D03*
X005731Y003645D03*
X006046Y003645D03*
X006361Y003645D03*
X006676Y003645D03*
X006991Y003645D03*
X007306Y003645D03*
D23*
X007345Y004078D03*
X005692Y004078D03*
D24*
X002739Y003881D03*
X002739Y004432D03*
D25*
X001469Y007424D03*
X000780Y007424D03*
D26*
X004274Y007434D03*
X004274Y006469D03*
D27*
X002719Y001558D03*
X003861Y001558D03*
X003861Y002149D03*
X002719Y002149D03*
X002719Y002739D03*
X003861Y002739D03*
D28*
X003290Y001538D03*
M02*
