%
M48
M72
T01C0.0197
T02C0.0236
T03C0.0276
T04C0.0354
T05C0.0394
T06C0.0461
T07C0.0512
T08C0.0787
%
T01
X4589Y1479
X6440Y1637
X7739Y1676
X6952Y2385
X5692Y2857
X6400Y3074
X7030Y3015
X9058Y3211
X10337Y3172
X10692Y3546
X11479Y3369
X10810Y2857
X10298Y2542
X11597Y2188
X12700Y1873
X12149Y1519
X11519Y1519
X9826Y928
X6991Y810
X6440Y810
X12739Y2621
X13566Y2739
X13645Y3271
X15141Y2523
X16873Y3231
X14904Y4156
X15023Y4708
X15771Y5337
X15141Y5790
X16912Y5849
X18645Y5337
X20416Y5830
X21400Y6322
X20298Y6912
X21834Y7463
X18054Y6558
X15889Y6558
X13763Y6952
X12503Y6755
X12070Y6499
X10889Y6086
X10141Y6125
X10337Y5652
X8566Y5377
X9196Y4629
X9235Y4078
X10298Y3960
X11046Y4117
X11361Y4668
X10849Y4826
X12030Y4727
X12857Y4727
X8054Y3861
X6361Y4944
X5869Y5495
X3290Y5397
X5534Y6794
X6145Y7109
X3566Y6834
X2601Y6932
X9629Y7227
X10692Y7149
X20613Y4806
X20416Y2483
X15731Y1676
X14786Y1558
X13920Y1204
X15141Y652
X4944Y3192
T02
X3290Y1204
X4865Y1007
X5141Y1873
X6361Y6046
X4235Y7385
X2109Y7542
T03
X16125Y928
X16715Y928
X17306Y928
X17897Y928
X18487Y928
T04
X13339Y7582
X11666Y7582
T05
X2082Y5456
X2082Y4471
X2082Y3684
X2082Y2700
T06
X3686Y4090
X21286Y4090
T07
X1243Y4983
X1243Y3172
T08
X1243Y1774
X1243Y6381
M30
